<?xml version="1.0" standalone="no"?>
<!DOCTYPE svg PUBLIC "-//W3C//DTD SVG 20010904//EN"
 "http://www.w3.org/TR/2001/REC-SVG-20010904/DTD/svg10.dtd">
<svg version="1.0" xmlns="http://www.w3.org/2000/svg"
 width="1025.000000pt" height="1025.000000pt" viewBox="0 0 1025.000000 1025.000000"
 preserveAspectRatio="xMidYMid meet">
<metadata>
Created by potrace 1.14, written by Peter Selinger 2001-2017
</metadata>
<g transform="translate(0.000000,1025.000000) scale(0.100000,-0.100000)"
fill="#000000" stroke="none">
<path d="M1315 10229 c-632 -93 -1140 -576 -1281 -1219 -18 -82 -19 -214 -19
-3885 0 -3671 1 -3803 19 -3885 135 -617 589 -1071 1206 -1206 82 -18 214 -19
3885 -19 3671 0 3803 1 3885 19 617 135 1071 589 1206 1206 18 82 19 214 19
3885 0 3671 -1 3803 -19 3885 -89 409 -318 749 -656 975 -155 104 -324 177
-529 228 l-86 21 -3785 2 c-2123 1 -3811 -2 -3845 -7z m4705 -1794 c529 -62
1020 -286 1394 -636 l67 -63 -1753 -1753 -1753 -1753 -33 33 c-64 61 -194 222
-267 332 -550 826 -556 1899 -15 2729 402 617 1054 1022 1787 1111 148 18 423
18 573 0z m542 -2625 c524 -624 700 -1488 468 -2287 -231 -793 -880 -1442
-1673 -1673 -842 -245 -1757 -33 -2381 551 l-67 63 1753 1753 1753 1753 33
-33 c19 -17 70 -75 114 -127z"/>
</g>
</svg>
